<?xml version="1.0" standalone="no"?>
<!DOCTYPE svg PUBLIC "-//W3C//DTD SVG 20010904//EN"
 "http://www.w3.org/TR/2001/REC-SVG-20010904/DTD/svg10.dtd">
<svg version="1.0" xmlns="http://www.w3.org/2000/svg"
 width="980.000000pt" height="980.000000pt" viewBox="0 0 980.000000 980.000000"
 preserveAspectRatio="xMidYMid meet">
<metadata>
Created by potrace 1.16, written by Peter Selinger 2001-2019
</metadata>
<g transform="translate(0.000000,980.000000) scale(0.100000,-0.100000)"
fill="#000000" stroke="none">
<path d="M4555 9790 c-949 -72 -1845 -406 -2588 -964 -1471 -1106 -2195 -2901
-1902 -4716 179 -1103 748 -2134 1590 -2879 1105 -978 2568 -1401 4030 -1166
824 132 1626 493 2290 1029 263 212 555 508 771 781 1158 1463 1380 3475 570
5150 -240 495 -529 904 -921 1304 -809 824 -1842 1322 -3005 1446 -173 19
-666 27 -835 15z m3125 -3087 c-1 -10 -2766 -2057 -2784 -2061 -12 -3 -2728
1999 -2781 2049 -19 19 43 19 2773 19 1536 0 2792 -3 2792 -7z m-4194 -1358
c762 -564 1391 -1028 1398 -1031 8 -3 84 46 173 112 87 65 208 154 268 199 61
45 355 263 655 485 300 222 604 447 675 500 593 440 1027 760 1030 760 3 0 5
-740 5 -1645 l0 -1645 -2800 0 -2800 0 0 1645 c0 905 3 1645 6 1645 3 0 629
-461 1390 -1025z"/>
</g>
</svg>
