<?xml version="1.0" standalone="no"?>
<!DOCTYPE svg PUBLIC "-//W3C//DTD SVG 20010904//EN"
 "http://www.w3.org/TR/2001/REC-SVG-20010904/DTD/svg10.dtd">
<svg version="1.0" xmlns="http://www.w3.org/2000/svg"
 width="980.000000pt" height="980.000000pt" viewBox="0 0 980.000000 980.000000"
 preserveAspectRatio="xMidYMid meet">
<metadata>
Created by potrace 1.16, written by Peter Selinger 2001-2019
</metadata>
<g transform="translate(0.000000,980.000000) scale(0.100000,-0.100000)"
fill="#000000" stroke="none">
<path d="M4560 9789 c-1035 -75 -1998 -463 -2800 -1128 -150 -123 -501 -475
-622 -621 -881 -1068 -1270 -2403 -1098 -3765 119 -934 501 -1801 1124 -2545
98 -117 370 -393 496 -504 1328 -1166 3158 -1531 4825 -962 895 305 1700 879
2281 1627 735 946 1100 2126 1024 3314 -70 1094 -491 2109 -1216 2935 -112
128 -386 398 -509 501 -763 642 -1665 1026 -2665 1134 -174 19 -664 27 -840
14z m-1512 -1634 c56 -24 1287 -1254 1315 -1315 26 -58 26 -132 0 -190 -15
-32 -86 -110 -244 -267 l-224 -223 -763 763 -762 762 222 222 c158 157 236
228 268 242 54 25 136 27 188 6z m-27 -1351 l756 -756 -33 -50 c-79 -116 -72
-237 23 -420 113 -219 417 -584 804 -963 305 -298 672 -608 924 -777 259 -175
401 -206 533 -117 l45 30 741 -738 741 -738 -25 -28 c-39 -45 -211 -124 -341
-156 -758 -192 -1789 191 -2812 1042 -307 256 -744 676 -998 962 -780 876
-1204 1647 -1315 2392 -23 149 -23 446 0 578 21 124 67 278 112 368 36 73 71
127 82 127 4 0 347 -340 763 -756z m3842 -2462 c23 -11 256 -234 640 -613 655
-648 660 -653 661 -758 1 -93 -21 -124 -266 -368 l-223 -223 -745 745 -745
745 225 226 c142 142 240 233 265 245 51 24 138 24 188 1z"/>
</g>
</svg>
